<mxfile host="app.diagrams.net" modified="2022-12-20T17:41:02.265Z" agent="5.0 (Macintosh)" etag="fUMWqppKe-IUqVg7u6yN" version="20.6.2" type="github">
  <diagram id="nPilC4Qz_uBZGegtCT5F" name="Page-1">
    <mxGraphModel dx="1266" dy="714" grid="1" gridSize="10" guides="1" tooltips="1" connect="1" arrows="1" fold="1" page="1" pageScale="1" pageWidth="827" pageHeight="1169" math="0" shadow="0">
      <root>
        <mxCell id="0" />
        <mxCell id="1" parent="0" />
        <mxCell id="r2tNmLCsxihBrBSLhbjm-7" value="VPC" style="points=[[0,0],[0.25,0],[0.5,0],[0.75,0],[1,0],[1,0.25],[1,0.5],[1,0.75],[1,1],[0.75,1],[0.5,1],[0.25,1],[0,1],[0,0.75],[0,0.5],[0,0.25]];outlineConnect=0;gradientColor=none;html=1;whiteSpace=wrap;fontSize=12;fontStyle=0;container=1;pointerEvents=0;collapsible=0;recursiveResize=0;shape=mxgraph.aws4.group;grIcon=mxgraph.aws4.group_vpc;strokeColor=#248814;fillColor=none;verticalAlign=top;align=left;spacingLeft=30;fontColor=#AAB7B8;dashed=0;" parent="1" vertex="1">
          <mxGeometry x="190" y="110" width="590" height="360" as="geometry" />
        </mxCell>
        <mxCell id="r2tNmLCsxihBrBSLhbjm-1" value="" style="outlineConnect=0;dashed=0;verticalLabelPosition=bottom;verticalAlign=top;align=center;html=1;shape=mxgraph.aws3.api_gateway;fillColor=#D9A741;gradientColor=none;" parent="r2tNmLCsxihBrBSLhbjm-7" vertex="1">
          <mxGeometry x="90" y="120" width="76.5" height="93" as="geometry" />
        </mxCell>
        <mxCell id="r2tNmLCsxihBrBSLhbjm-24" style="edgeStyle=orthogonalEdgeStyle;rounded=0;orthogonalLoop=1;jettySize=auto;html=1;exitX=0;exitY=0.5;exitDx=0;exitDy=0;exitPerimeter=0;" parent="r2tNmLCsxihBrBSLhbjm-7" source="r2tNmLCsxihBrBSLhbjm-2" target="r2tNmLCsxihBrBSLhbjm-1" edge="1">
          <mxGeometry relative="1" as="geometry" />
        </mxCell>
        <mxCell id="r2tNmLCsxihBrBSLhbjm-2" value="" style="outlineConnect=0;dashed=0;verticalLabelPosition=bottom;verticalAlign=top;align=center;html=1;shape=mxgraph.aws3.lambda_function;fillColor=#F58534;gradientColor=none;" parent="r2tNmLCsxihBrBSLhbjm-7" vertex="1">
          <mxGeometry x="409" y="30" width="69" height="72" as="geometry" />
        </mxCell>
        <mxCell id="r2tNmLCsxihBrBSLhbjm-8" value="" style="sketch=0;points=[[0,0,0],[0.25,0,0],[0.5,0,0],[0.75,0,0],[1,0,0],[0,1,0],[0.25,1,0],[0.5,1,0],[0.75,1,0],[1,1,0],[0,0.25,0],[0,0.5,0],[0,0.75,0],[1,0.25,0],[1,0.5,0],[1,0.75,0]];outlineConnect=0;fontColor=#232F3E;gradientColor=#4D72F3;gradientDirection=north;fillColor=#3334B9;strokeColor=#ffffff;dashed=0;verticalLabelPosition=bottom;verticalAlign=top;align=center;html=1;fontSize=12;fontStyle=0;aspect=fixed;shape=mxgraph.aws4.resourceIcon;resIcon=mxgraph.aws4.dynamodb;" parent="r2tNmLCsxihBrBSLhbjm-7" vertex="1">
          <mxGeometry x="400" y="240" width="78" height="78" as="geometry" />
        </mxCell>
        <mxCell id="r2tNmLCsxihBrBSLhbjm-9" value="" style="endArrow=classic;html=1;rounded=0;exitX=1;exitY=0.21;exitDx=0;exitDy=0;exitPerimeter=0;entryX=0;entryY=0.5;entryDx=0;entryDy=0;entryPerimeter=0;" parent="r2tNmLCsxihBrBSLhbjm-7" source="r2tNmLCsxihBrBSLhbjm-1" target="r2tNmLCsxihBrBSLhbjm-2" edge="1">
          <mxGeometry width="50" height="50" relative="1" as="geometry">
            <mxPoint x="310" y="290" as="sourcePoint" />
            <mxPoint x="360" y="240" as="targetPoint" />
          </mxGeometry>
        </mxCell>
        <mxCell id="r2tNmLCsxihBrBSLhbjm-10" value="" style="endArrow=classic;html=1;rounded=0;exitX=0.5;exitY=1;exitDx=0;exitDy=0;exitPerimeter=0;" parent="r2tNmLCsxihBrBSLhbjm-7" source="r2tNmLCsxihBrBSLhbjm-2" target="r2tNmLCsxihBrBSLhbjm-8" edge="1">
          <mxGeometry width="50" height="50" relative="1" as="geometry">
            <mxPoint x="310" y="290" as="sourcePoint" />
            <mxPoint x="360" y="240" as="targetPoint" />
          </mxGeometry>
        </mxCell>
        <mxCell id="r2tNmLCsxihBrBSLhbjm-11" value="" style="endArrow=classic;html=1;rounded=0;entryX=0.145;entryY=0.855;entryDx=0;entryDy=0;entryPerimeter=0;exitX=0.25;exitY=0;exitDx=0;exitDy=0;exitPerimeter=0;" parent="r2tNmLCsxihBrBSLhbjm-7" source="r2tNmLCsxihBrBSLhbjm-8" target="r2tNmLCsxihBrBSLhbjm-2" edge="1">
          <mxGeometry width="50" height="50" relative="1" as="geometry">
            <mxPoint x="310" y="290" as="sourcePoint" />
            <mxPoint x="360" y="240" as="targetPoint" />
          </mxGeometry>
        </mxCell>
        <mxCell id="r2tNmLCsxihBrBSLhbjm-16" value="AWS Api gateway" style="text;html=1;strokeColor=#BD7000;fillColor=#f0a30a;align=center;verticalAlign=middle;whiteSpace=wrap;rounded=0;fontColor=#000000;fontStyle=1" parent="r2tNmLCsxihBrBSLhbjm-7" vertex="1">
          <mxGeometry x="58.25" y="230" width="140" height="30" as="geometry" />
        </mxCell>
        <mxCell id="r2tNmLCsxihBrBSLhbjm-17" value="&lt;div&gt;Lambda&lt;/div&gt;" style="text;html=1;strokeColor=#A50040;fillColor=#d80073;align=center;verticalAlign=middle;whiteSpace=wrap;rounded=0;fontColor=#ffffff;fontStyle=1" parent="r2tNmLCsxihBrBSLhbjm-7" vertex="1">
          <mxGeometry x="480" y="20" width="60" height="30" as="geometry" />
        </mxCell>
        <mxCell id="r2tNmLCsxihBrBSLhbjm-18" value="Dynamo DB" style="text;html=1;strokeColor=#001DBC;fillColor=#0050ef;align=center;verticalAlign=middle;whiteSpace=wrap;rounded=0;fontColor=#ffffff;fontStyle=1" parent="r2tNmLCsxihBrBSLhbjm-7" vertex="1">
          <mxGeometry x="400" y="330" width="80" height="30" as="geometry" />
        </mxCell>
        <mxCell id="r2tNmLCsxihBrBSLhbjm-25" value="Trigger lambda" style="text;html=1;strokeColor=none;fillColor=none;align=center;verticalAlign=middle;whiteSpace=wrap;rounded=0;rotation=-15;fontStyle=1" parent="r2tNmLCsxihBrBSLhbjm-7" vertex="1">
          <mxGeometry x="209.32" y="120" width="100" height="30" as="geometry" />
        </mxCell>
        <mxCell id="r2tNmLCsxihBrBSLhbjm-27" value="CRUD Dynamo db" style="text;html=1;strokeColor=none;fillColor=none;align=center;verticalAlign=middle;whiteSpace=wrap;rounded=0;fontStyle=1" parent="r2tNmLCsxihBrBSLhbjm-7" vertex="1">
          <mxGeometry x="450" y="130" width="90" height="30" as="geometry" />
        </mxCell>
        <mxCell id="r2tNmLCsxihBrBSLhbjm-28" value="response back to api gateway" style="text;html=1;strokeColor=none;fillColor=none;align=center;verticalAlign=middle;whiteSpace=wrap;rounded=0;fontStyle=1" parent="r2tNmLCsxihBrBSLhbjm-7" vertex="1">
          <mxGeometry x="138.25" y="30" width="191.75" height="30" as="geometry" />
        </mxCell>
        <mxCell id="r2tNmLCsxihBrBSLhbjm-14" value="" style="outlineConnect=0;dashed=0;verticalLabelPosition=bottom;verticalAlign=top;align=center;html=1;shape=mxgraph.aws3.management_console;fillColor=#F58534;gradientColor=none;" parent="1" vertex="1">
          <mxGeometry x="50" y="150" width="63" height="63" as="geometry" />
        </mxCell>
        <mxCell id="r2tNmLCsxihBrBSLhbjm-15" value="" style="outlineConnect=0;dashed=0;verticalLabelPosition=bottom;verticalAlign=top;align=center;html=1;shape=mxgraph.aws3.user;fillColor=#1ba1e2;strokeColor=#006EAF;fontColor=#ffffff;" parent="1" vertex="1">
          <mxGeometry x="50" y="340" width="45" height="63" as="geometry" />
        </mxCell>
        <mxCell id="r2tNmLCsxihBrBSLhbjm-19" value="" style="endArrow=classic;html=1;rounded=0;exitX=1;exitY=0.25;exitDx=0;exitDy=0;exitPerimeter=0;" parent="1" source="r2tNmLCsxihBrBSLhbjm-14" target="r2tNmLCsxihBrBSLhbjm-7" edge="1">
          <mxGeometry width="50" height="50" relative="1" as="geometry">
            <mxPoint x="140" y="200" as="sourcePoint" />
            <mxPoint x="440" y="350" as="targetPoint" />
          </mxGeometry>
        </mxCell>
        <mxCell id="r2tNmLCsxihBrBSLhbjm-20" value="" style="endArrow=classic;html=1;rounded=0;exitX=0.5;exitY=0;exitDx=0;exitDy=0;exitPerimeter=0;" parent="1" source="r2tNmLCsxihBrBSLhbjm-15" edge="1">
          <mxGeometry width="50" height="50" relative="1" as="geometry">
            <mxPoint x="390" y="400" as="sourcePoint" />
            <mxPoint x="73" y="220" as="targetPoint" />
          </mxGeometry>
        </mxCell>
        <mxCell id="r2tNmLCsxihBrBSLhbjm-21" value="Cloud user" style="text;html=1;strokeColor=none;fillColor=none;align=center;verticalAlign=middle;whiteSpace=wrap;rounded=0;fontStyle=1" parent="1" vertex="1">
          <mxGeometry x="30" y="420" width="90" height="30" as="geometry" />
        </mxCell>
        <mxCell id="r2tNmLCsxihBrBSLhbjm-22" value="AWS console" style="text;html=1;strokeColor=none;fillColor=none;align=center;verticalAlign=middle;whiteSpace=wrap;rounded=0;fontStyle=1" parent="1" vertex="1">
          <mxGeometry x="37.25" y="110" width="88.5" height="30" as="geometry" />
        </mxCell>
      </root>
    </mxGraphModel>
  </diagram>
</mxfile>
